<svg width="32" height="32" viewBox="0 0 32 32" fill="none" xmlns="http://www.w3.org/2000/svg">
  <rect x="1.28" y="1.28" width="29.44" height="29.44" rx="14.72" fill="white" />
  <rect x="1.28" y="1.28" width="29.44" height="29.44" rx="14.72" stroke="#F8BE61" stroke-width="2.56" />
  <path d="M15.5761 24.5725C14.4457 24.5725 13.4173 24.3213 12.4909 23.8189C11.5803 23.3008 10.8502 22.555 10.3007 21.5816C9.76691 20.5925 9.5 19.3914 9.5 17.9783V14.0218C9.5 11.9023 10.0966 10.2773 11.2899 9.14682C12.4831 8.00068 14.1002 7.42761 16.1413 7.42761C18.1667 7.42761 19.7289 7.96928 20.8279 9.05261C21.9426 10.1202 22.5 11.5725 22.5 13.4095V13.5037H19.4384V13.3153C19.4384 12.7344 19.3128 12.2084 19.0616 11.7374C18.8261 11.2664 18.465 10.8974 17.9783 10.6305C17.4915 10.3479 16.8792 10.2066 16.1413 10.2066C15.0423 10.2066 14.1787 10.5442 13.5507 11.2193C12.9227 11.8944 12.6087 12.8129 12.6087 13.9747V18.0254C12.6087 19.1716 12.9227 20.0979 13.5507 20.8044C14.1787 21.4952 15.058 21.8407 16.1884 21.8407C17.3188 21.8407 18.1431 21.5423 18.6612 20.9457C19.1793 20.3491 19.4384 19.5955 19.4384 18.6849V18.4494H15.529V15.8117H22.5V24.2428H19.6268V22.6649H19.2029C19.093 22.9318 18.9124 23.2144 18.6612 23.5128C18.4257 23.8111 18.0646 24.0623 17.5779 24.2664C17.0912 24.4705 16.4239 24.5725 15.5761 24.5725Z" fill="#F8BE61" />
</svg>