<svg width="109" height="24" viewBox="0 0 109 24" fill="none" xmlns="http://www.w3.org/2000/svg">
  <path d="M8.85598 23.448C7.31998 23.448 5.92264 23.1066 4.66398 22.424C3.42664 21.72 2.43464 20.7066 1.68798 19.384C0.962642 18.04 0.599976 16.408 0.599976 14.488V9.11198C0.599976 6.23198 1.41064 4.02398 3.03198 2.48798C4.65331 0.930644 6.85064 0.151978 9.62398 0.151978C12.376 0.151978 14.4986 0.887978 15.992 2.35998C17.5066 3.81064 18.264 5.78398 18.264 8.27998V8.40798H14.104V8.15198C14.104 7.36264 13.9333 6.64798 13.592 6.00798C13.272 5.36798 12.7813 4.86664 12.12 4.50398C11.4586 4.11998 10.6266 3.92798 9.62398 3.92798C8.13064 3.92798 6.95731 4.38665 6.10398 5.30398C5.25064 6.22131 4.82398 7.46931 4.82398 9.04798V14.552C4.82398 16.1093 5.25064 17.368 6.10398 18.328C6.95731 19.2666 8.15198 19.736 9.68798 19.736C11.224 19.736 12.344 19.3306 13.048 18.52C13.752 17.7093 14.104 16.6853 14.104 15.448V15.128H8.79198V11.544H18.264V23H14.36V20.856H13.784C13.6346 21.2186 13.3893 21.6026 13.048 22.008C12.728 22.4133 12.2373 22.7546 11.576 23.032C10.9146 23.3093 10.008 23.448 8.85598 23.448Z" fill="#F8BE61" />
  <path d="M21.983 23V7.12798H25.951V8.91998H26.527C26.7617 8.27998 27.1457 7.81064 27.679 7.51198C28.2337 7.21331 28.8737 7.06398 29.599 7.06398H31.519V10.648H29.535C28.511 10.648 27.6684 10.9253 27.007 11.48C26.3457 12.0133 26.015 12.8453 26.015 13.976V23H21.983Z" fill="white" />
  <path d="M34.2261 23V7.12798H38.2581V23H34.2261ZM36.2421 5.27198C35.5168 5.27198 34.8981 5.03731 34.3861 4.56798C33.8954 4.09864 33.6501 3.47998 33.6501 2.71198C33.6501 1.94398 33.8954 1.32531 34.3861 0.855978C34.8981 0.386644 35.5168 0.151978 36.2421 0.151978C36.9888 0.151978 37.6074 0.386644 38.0981 0.855978C38.5888 1.32531 38.8341 1.94398 38.8341 2.71198C38.8341 3.47998 38.5888 4.09864 38.0981 4.56798C37.6074 5.03731 36.9888 5.27198 36.2421 5.27198Z" fill="white" />
  <path d="M44.9056 23V10.456H40.8736V7.12798H44.9056V4.18398C44.9056 3.09598 45.2256 2.23198 45.8656 1.59198C46.527 0.930644 47.3803 0.599977 48.4256 0.599977H52.5856V3.92798H49.8336C49.2363 3.92798 48.9376 4.24798 48.9376 4.88798V7.12798H53.0976V10.456H48.9376V23H44.9056Z" fill="white" />
  <path d="M60.4527 23.448C59.322 23.448 58.3087 23.256 57.4127 22.872C56.5167 22.4666 55.802 21.8906 55.2687 21.144C54.7567 20.376 54.5007 19.448 54.5007 18.36C54.5007 17.272 54.7567 16.3653 55.2687 15.64C55.802 14.8933 56.5274 14.3386 57.4447 13.976C58.3834 13.592 59.45 13.4 60.6447 13.4H64.9967V12.504C64.9967 11.7573 64.762 11.1493 64.2927 10.68C63.8234 10.1893 63.0767 9.94398 62.0527 9.94398C61.05 9.94398 60.3034 10.1786 59.8127 10.648C59.322 11.096 59.002 11.6826 58.8527 12.408L55.1407 11.16C55.3967 10.3493 55.802 9.61331 56.3567 8.95198C56.9327 8.26931 57.69 7.72531 58.6287 7.31998C59.5887 6.89331 60.7514 6.67998 62.1167 6.67998C64.2074 6.67998 65.8607 7.20264 67.0767 8.24798C68.2927 9.29331 68.9007 10.808 68.9007 12.792V18.712C68.9007 19.352 69.1994 19.672 69.7967 19.672H71.0767V23H68.3887C67.5994 23 66.9487 22.808 66.4367 22.424C65.9247 22.04 65.6687 21.528 65.6687 20.888V20.856H65.0607C64.9754 21.112 64.7834 21.4533 64.4847 21.88C64.186 22.2853 63.7167 22.648 63.0767 22.968C62.4367 23.288 61.562 23.448 60.4527 23.448ZM61.1567 20.184C62.2874 20.184 63.2047 19.8746 63.9087 19.256C64.634 18.616 64.9967 17.7733 64.9967 16.728V16.408H60.9327C60.186 16.408 59.5994 16.568 59.1727 16.888C58.746 17.208 58.5327 17.656 58.5327 18.232C58.5327 18.808 58.7567 19.2773 59.2047 19.64C59.6527 20.0026 60.3034 20.184 61.1567 20.184Z" fill="white" />
  <path d="M73.5803 23V7.12798H77.5483V9.20798H78.1243C78.3803 8.65331 78.8603 8.13065 79.5643 7.63998C80.2683 7.12798 81.3349 6.87198 82.7643 6.87198C84.0016 6.87198 85.0789 7.15998 85.9963 7.73598C86.9349 8.29064 87.6603 9.06931 88.1723 10.072C88.6843 11.0533 88.9403 12.2053 88.9403 13.528V23H84.9083V13.848C84.9083 12.6533 84.6096 11.7573 84.0123 11.16C83.4363 10.5626 82.6043 10.264 81.5163 10.264C80.2789 10.264 79.3189 10.68 78.6363 11.512C77.9536 12.3226 77.6123 13.464 77.6123 14.936V23H73.5803Z" fill="white" />
  <path d="M100.407 23.448C98.8279 23.448 97.4092 23.128 96.1506 22.488C94.8919 21.848 93.8999 20.92 93.1746 19.704C92.4492 18.488 92.0866 17.0266 92.0866 15.32V14.808C92.0866 13.1013 92.4492 11.64 93.1746 10.424C93.8999 9.20798 94.8919 8.27998 96.1506 7.63998C97.4092 6.99998 98.8279 6.67998 100.407 6.67998C101.985 6.67998 103.404 6.99998 104.663 7.63998C105.921 8.27998 106.913 9.20798 107.639 10.424C108.364 11.64 108.727 13.1013 108.727 14.808V15.32C108.727 17.0266 108.364 18.488 107.639 19.704C106.913 20.92 105.921 21.848 104.663 22.488C103.404 23.128 101.985 23.448 100.407 23.448ZM100.407 19.864C101.644 19.864 102.668 19.4693 103.479 18.68C104.289 17.8693 104.695 16.7173 104.695 15.224V14.904C104.695 13.4106 104.289 12.2693 103.479 11.48C102.689 10.6693 101.665 10.264 100.407 10.264C99.1692 10.264 98.1452 10.6693 97.3346 11.48C96.5239 12.2693 96.1186 13.4106 96.1186 14.904V15.224C96.1186 16.7173 96.5239 17.8693 97.3346 18.68C98.1452 19.4693 99.1692 19.864 100.407 19.864Z" fill="white" />
</svg>